<svg width="160" height="110" viewBox="0 0 160 110" fill="none" xmlns="http://www.w3.org/2000/svg">
<rect width="160" height="110" fill="white"/>
<path d="M43.3546 54.9482H117.041V66.0409H43.3546V54.9482Z" fill="#BF3DC2"/>
<circle cx="80.7271" cy="58.4971" r="18.7004" transform="rotate(-19.5993 80.7271 58.4971)" fill="black"/>
<circle cx="103.176" cy="32.3668" r="9.90415" fill="black"/>
<circle cx="73.6522" cy="19.3186" r="6.73483" fill="black"/>
<path d="M113.731 107.242H46.665C44.8367 107.242 43.3546 106.353 43.3546 105.257V66.0408H117.041V105.257C117.041 106.353 115.559 107.242 113.731 107.242Z" fill="#FED730"/>
<path d="M90.2583 66.0408V77.1214C90.2583 78.0027 89.2976 78.7181 88.1092 78.7181H74.1837C72.9953 78.7181 72.0347 78.0027 72.0347 77.1214V66.0408H90.2583Z" fill="white"/>
<path d="M26.9656 40.4911L43.3546 54.9481V66.0408L18.6557 46.5896C17.6491 45.616 17.8147 44.3489 19.0615 43.487L23.634 40.3259C24.5585 39.6866 26.2188 39.7691 26.9656 40.4911Z" fill="#FED730"/>
<path d="M133.034 40.4911L117.042 55.2215V66.4369L141.344 46.5896C142.351 45.616 142.185 44.3489 140.938 43.487L136.366 40.3259C135.442 39.6866 133.781 39.7691 133.034 40.4911Z" fill="#FED730"/>
<path d="M92.8405 5.27682C93.0366 5.14764 93.0366 4.86081 92.8405 4.73163C92.3344 4.39822 91.8541 4.01031 91.408 3.56762C90.9619 3.12492 90.571 2.64817 90.235 2.14594C90.1049 1.95135 89.8158 1.95135 89.6857 2.14594C89.3497 2.64817 88.9588 3.12492 88.5127 3.56762C88.0666 4.01031 87.5862 4.39822 87.0802 4.73163C86.8841 4.86081 86.8841 5.14764 87.0802 5.27682C87.5863 5.61022 88.0666 5.99813 88.5127 6.44083C88.9588 6.88353 89.3497 7.36027 89.6857 7.8625C89.8158 8.05709 90.1049 8.05709 90.235 7.8625C90.571 7.36027 90.9619 6.88353 91.408 6.44083C91.854 5.99806 92.3344 5.61015 92.8405 5.27682Z" fill="#19D89F"/>
<path d="M67.6577 40.6261C68.0038 40.3982 68.0038 39.8919 67.6577 39.664C66.7646 39.0757 65.9168 38.3912 65.1297 37.61C64.3425 36.8287 63.6526 35.9874 63.0598 35.1011C62.8302 34.7577 62.3199 34.7577 62.0904 35.1011C61.4975 35.9874 60.8078 36.8287 60.0205 37.61C59.2331 38.3912 58.3855 39.0757 57.4924 39.664C57.1463 39.8919 57.1463 40.3982 57.4924 40.6261C58.3855 41.2144 59.2333 41.8989 60.0205 42.6801C60.8076 43.4614 61.4975 44.3027 62.0904 45.1891C62.3199 45.5325 62.8302 45.5325 63.0598 45.1891C63.6526 44.3027 64.3423 43.4614 65.1297 42.6801C65.9168 41.8989 66.7646 41.2144 67.6577 40.6261Z" fill="#19D89F"/>
<path d="M52.3047 12.3372C52.4966 12.2109 52.4966 11.9302 52.3047 11.8038C51.8095 11.4776 51.3394 11.098 50.9029 10.6648C50.4665 10.2317 50.0839 9.76513 49.7552 9.27367C49.6279 9.08326 49.345 9.08326 49.2177 9.27367C48.8889 9.76513 48.5065 10.2317 48.0699 10.6648C47.6333 11.098 47.1634 11.4776 46.6681 11.8038C46.4763 11.9302 46.4763 12.2109 46.6681 12.3372C47.1634 12.6635 47.6335 13.043 48.0699 13.4762C48.5064 13.9094 48.8889 14.3759 49.2177 14.8674C49.345 15.0578 49.6279 15.0578 49.7552 14.8674C50.0839 14.3759 50.4663 13.9094 50.9029 13.4762C51.3395 13.043 51.8096 12.6635 52.3047 12.3372Z" fill="#19D89F"/>
<path d="M78.7097 63.404C78.2821 63.404 77.8665 63.2633 77.5377 63.0038L74.363 60.4979C73.6001 59.8956 73.5064 58.832 74.1535 58.1221C74.8009 57.4124 75.9439 57.3252 76.7069 57.9273L78.4732 59.3216L84.7699 52.1393C85.4022 51.4181 86.543 51.3099 87.3188 51.8986C88.0941 52.487 88.2099 53.5487 87.5776 54.2699L80.1135 62.7838C79.806 63.1346 79.3596 63.3556 78.8752 63.3969C78.82 63.4016 78.7648 63.404 78.7097 63.404V63.404Z" fill="white"/>
</svg>
