<svg width="160" height="110" viewBox="0 0 160 110" fill="none" xmlns="http://www.w3.org/2000/svg">
<g clip-path="url(#clip0_2244_31778)">
<rect width="160" height="110" fill="white"/>
<path d="M63.1193 72.8184L45.5879 72.8184C44.4834 72.8184 43.5879 73.7138 43.5879 74.8184L43.5879 88.9746C43.5879 90.0792 42.6925 90.9746 41.5879 90.9746L27.6321 90.9746" stroke="#FED730" stroke-width="16" stroke-linecap="round" stroke-linejoin="round"/>
<path d="M68.071 53.8367L43.3125 53.8367C38.9825 53.8367 35.4723 50.3265 35.4723 45.9965V45.9965C35.4723 41.6664 31.9621 38.1563 27.6321 38.1563L7.00001 38.1563" stroke="#5959EB" stroke-width="16" stroke-linecap="round" stroke-linejoin="round"/>
<g filter="url(#filter0_i_2244_31778)">
<path d="M87.7197 25.0693C100.298 25.0693 110.533 38.7143 110.533 55.487C110.533 72.2597 100.298 85.9047 87.7197 85.9047C75.141 85.9047 64.9064 72.2597 64.9064 55.487C64.9064 38.7143 75.141 25.0693 87.7197 25.0693Z" fill="url(#paint0_radial_2244_31778)"/>
</g>
<path d="M113.533 55.487C113.533 46.5121 110.799 38.262 106.243 32.1884C101.688 26.1152 95.168 22.0693 87.7197 22.0693C80.2714 22.0693 73.7511 26.1152 69.1961 32.1884C64.6408 38.262 61.9064 46.5121 61.9064 55.487C61.9064 64.4619 64.6408 72.712 69.1961 78.7856C73.7511 84.8589 80.2714 88.9047 87.7197 88.9047C95.168 88.9047 101.688 84.8589 106.243 78.7856C110.799 72.712 113.533 64.4619 113.533 55.487Z" stroke="#E2EAF3" stroke-width="6" stroke-linejoin="round"/>
<path d="M100.883 37.557C97.2797 32.6217 92.4217 29.9036 87.2044 29.9036C87.2019 29.9036 87.1985 29.904 87.1959 29.904C87.1883 29.904 87.1807 29.904 87.1735 29.904C81.968 29.9148 77.1228 32.6314 73.5259 37.557C70.0579 42.3073 68.148 48.5945 68.148 55.2613C68.148 61.9276 70.0579 68.2152 73.5263 72.9651C77.13 77.9008 81.9875 80.6189 87.2044 80.6189H87.2048H87.2053H87.2057C92.4226 80.6186 97.2797 77.9008 100.883 72.9651C104.351 68.2152 106.261 61.9276 106.261 55.2613C106.261 48.5945 104.351 42.3073 100.883 37.557V37.557ZM77.3681 72.7318C78.0745 73.2066 78.8093 73.626 79.5679 73.9858C79.6213 74.0114 79.6768 74.0342 79.7327 74.0539L80.6946 74.3921C80.6997 74.3941 80.7052 74.396 80.7103 74.3975C80.7459 74.4099 80.7798 74.4242 80.8146 74.4378C80.9303 74.4834 81.0892 74.5461 81.279 74.5968C81.3176 74.6069 81.3566 74.6158 81.3955 74.6235L81.8451 74.7113C82.1058 74.7651 82.3689 74.8247 82.627 74.8882C82.7308 74.9137 82.8372 74.9299 82.9444 74.9361L83.7533 74.9857C83.7758 74.9868 83.797 74.9876 83.8194 74.9884C83.8402 74.9891 83.9004 74.9961 83.9444 75.0011C84.075 75.0166 84.247 75.0367 84.4496 75.0367C84.5508 75.0367 84.6597 75.0317 84.775 75.0186L85.3687 74.9698L85.9094 74.9427C86.0141 74.9373 86.1183 74.923 86.22 74.8994L86.6989 74.7876C87.1942 74.6765 87.4748 74.6301 87.4845 74.6285C87.4943 74.627 87.5036 74.6243 87.5133 74.6227C87.5422 74.6173 87.571 74.6111 87.5998 74.6045C87.6269 74.5984 87.654 74.5918 87.6803 74.5844C87.7066 74.5771 87.7324 74.5693 87.7583 74.5608C87.7871 74.5511 87.8159 74.5407 87.8439 74.5299C87.857 74.5244 87.8706 74.521 87.8837 74.5155C87.8867 74.514 88.1769 74.3933 88.6583 74.2226L89.1016 74.0717C89.1961 74.0392 89.2872 73.999 89.3736 73.9514C89.5253 73.8674 89.6881 73.7773 89.8622 73.6806L90.3746 73.419C90.6563 73.2874 90.8695 73.1234 91.028 73.0015C91.0704 72.969 91.1284 72.9245 91.1505 72.9102C91.164 72.9017 91.1771 72.8928 91.1903 72.8839L91.8319 72.4463C91.9039 72.3971 91.9708 72.343 92.0331 72.2838C92.2285 72.0969 92.4238 71.9185 92.6133 71.7521L92.9345 71.4786C92.9582 71.458 92.9811 71.4372 93.0035 71.4159C93.1264 71.2979 93.2235 71.1829 93.3019 71.0905C93.3286 71.0587 93.3548 71.0266 93.3824 70.9972C93.3909 70.9879 93.3993 70.9786 93.4078 70.969C93.5955 70.7546 93.7926 70.5406 93.993 70.3332C94.0341 70.2911 94.0723 70.2466 94.1079 70.2005C94.9999 69.0347 95.7953 67.7157 96.4072 66.387C96.4152 66.3692 96.4233 66.3514 96.4309 66.3332C96.9661 65.0308 97.3886 63.6088 97.6861 62.1068C97.6941 62.0642 97.7009 62.0217 97.7051 61.9787C97.7399 61.6312 97.7751 61.3387 97.8119 61.0853C97.8136 61.0745 97.8149 61.064 97.8162 61.0536C97.8217 61.0102 97.8289 60.9684 97.8357 60.927C97.8526 60.8241 97.8738 60.696 97.8848 60.5475C97.8865 60.527 97.8878 60.5064 97.8882 60.4859L97.9013 60.0433C97.9115 59.7864 97.9276 59.5337 97.9492 59.2923C97.9547 59.2307 97.956 59.1685 97.953 59.1065L97.9454 58.9529C97.9352 58.7432 97.9255 58.5447 97.9221 58.3679C97.9217 58.3489 97.9213 58.33 97.92 58.311C97.917 58.2642 97.9183 58.2019 97.9191 58.1299C97.9217 57.9686 97.9255 57.75 97.8861 57.5012C97.8602 57.3135 97.8382 57.1266 97.82 56.9448C97.8039 56.7842 97.7907 56.6232 97.781 56.4665C97.7768 56.4011 97.7679 56.3358 97.7543 56.2711L97.7314 56.162C97.7064 56.0409 97.6823 55.9275 97.6602 55.8223C97.5717 55.3727 97.539 55.1185 97.5365 55.1007C97.5344 55.0817 97.5297 55.0639 97.5267 55.0457C97.5225 55.0171 97.5183 54.9889 97.5119 54.9602C97.5064 54.9355 97.4988 54.9115 97.4916 54.8875C97.4856 54.8662 97.4814 54.8449 97.4742 54.824C97.4733 54.8213 97.3852 54.5578 97.2729 54.1276L97.1763 53.729C97.1576 53.6532 97.1331 53.5789 97.1017 53.5062C97.0458 53.3761 96.9907 53.2419 96.9386 53.1068C96.8831 52.9621 96.8347 52.8271 96.7911 52.6944C96.7161 52.4433 96.6051 52.2455 96.5305 52.1124C96.5152 52.0846 96.4987 52.0571 96.4868 52.0323C96.4762 52.0084 96.4648 51.9844 96.4534 51.9608C96.3801 51.8157 96.3059 51.6466 96.2339 51.4833C96.1966 51.3982 96.1508 51.3161 96.0966 51.2388C95.9995 51.0995 95.9084 50.9586 95.8262 50.8201L95.6821 50.5636C95.6656 50.5342 95.6482 50.5055 95.63 50.4773C95.5431 50.3446 95.455 50.2424 95.3969 50.1747C95.3868 50.1631 95.3766 50.1515 95.3724 50.1461C95.3626 50.1337 95.3533 50.1217 95.3435 50.1097C95.2431 49.9851 95.1486 49.8559 95.0545 49.7143C95.0096 49.6465 94.9588 49.5815 94.9024 49.5212C94.2113 48.7787 93.4854 48.1673 92.7451 47.7049C92.7023 47.6782 92.6582 47.6535 92.6128 47.6307C91.8556 47.2488 91.036 46.9938 90.1775 46.873C90.0207 46.851 89.8614 46.8498 89.7042 46.87C89.6114 46.8816 89.5703 46.8835 89.5605 46.8819C89.4588 46.8727 89.2707 46.8599 89.0414 46.8947C88.977 46.9044 88.913 46.9175 88.8507 46.9342L88.6888 46.9775C88.6876 46.9779 88.6863 46.9783 88.685 46.9783C88.4583 46.988 88.2363 47.041 88.0329 47.1338L88.021 47.1393C87.9693 47.1629 87.899 47.195 87.8706 47.2062C87.8417 47.2159 87.8129 47.2267 87.785 47.2375C87.0989 47.5111 86.6137 47.8439 86.3739 48.0153C85.881 48.283 85.5581 48.781 85.5785 49.342C85.5984 49.9019 85.9641 50.4076 86.5205 50.644C86.9387 50.8216 87.5934 50.9215 88.3359 50.3867C88.4791 50.2838 88.7155 50.114 89.055 49.9739C89.113 49.9534 89.169 49.9313 89.2224 49.9093C89.3156 49.895 89.4105 49.8768 89.5075 49.8543C89.5088 49.8539 89.5101 49.8536 89.5114 49.8532C89.627 49.8555 89.7482 49.8508 89.8749 49.8412C90.2593 49.9128 90.6275 50.0323 90.9725 50.1987C91.4217 50.4885 91.8929 50.8882 92.3442 51.3622C92.4628 51.5351 92.5866 51.7019 92.7137 51.8598C92.7531 51.9108 92.7946 51.96 92.837 52.0091L92.9374 52.1887C92.9434 52.1991 92.9493 52.2096 92.9557 52.22C93.0527 52.3837 93.1574 52.5493 93.2684 52.7133C93.3328 52.8584 93.4032 53.0144 93.4807 53.1703C93.5349 53.2895 93.5913 53.3897 93.6337 53.4651C93.6447 53.4849 93.6557 53.5042 93.6663 53.5239C93.7269 53.7093 93.793 53.8954 93.8689 54.0923C93.9193 54.2235 93.9723 54.3547 94.0261 54.4828L94.099 54.7822C94.1007 54.7896 94.1024 54.7969 94.1045 54.8043C94.1956 55.1541 94.274 55.4149 94.3206 55.5631C94.3426 55.7147 94.385 55.9836 94.4592 56.3594C94.4609 56.3659 94.4621 56.3729 94.4634 56.3795L94.5384 56.7362C94.5494 56.8949 94.563 57.0554 94.5791 57.2145C94.6011 57.4342 94.6278 57.661 94.6592 57.8881C94.6613 57.902 94.6621 57.9094 94.6647 57.9229C94.6676 57.9492 94.6664 58.0286 94.6655 58.0862C94.6638 58.1853 94.6617 58.3064 94.6689 58.4445C94.6736 58.6542 94.6837 58.8643 94.6948 59.086L94.6973 59.1456C94.6757 59.4041 94.6596 59.6715 94.6486 59.9419C94.6486 59.9469 94.6486 59.952 94.6482 59.957L94.6363 60.3637C94.6325 60.3942 94.6253 60.4395 94.6176 60.484C94.6058 60.5575 94.5939 60.6314 94.5842 60.7073C94.5448 60.9804 94.5075 61.2865 94.471 61.6398C94.2113 62.9329 93.8494 64.1509 93.3951 65.2618C92.884 66.3657 92.2268 67.4595 91.4907 68.4319C91.281 68.6505 91.075 68.8749 90.8776 69.1001C90.8267 69.1558 90.7763 69.2146 90.7263 69.2738C90.7042 69.2998 90.6763 69.3327 90.6589 69.3532L90.3834 69.588C90.3784 69.5923 90.3733 69.5965 90.3682 69.6008C90.1741 69.771 89.9758 69.9514 89.7771 70.1386L89.2596 70.4915C89.1304 70.5759 89.0211 70.6598 88.9325 70.7279C88.9033 70.7504 88.8655 70.7794 88.8405 70.7976C88.8338 70.801 88.8274 70.8041 88.8206 70.8076L88.2473 71.1005C88.2303 71.109 88.2134 71.1183 88.1964 71.1276C88.0642 71.2007 87.9384 71.2708 87.8189 71.3369L87.5108 71.4418C87.5044 71.4441 87.4981 71.4464 87.4917 71.4484C87.1481 71.5703 86.8819 71.6724 86.7162 71.7378C86.5459 71.7691 86.276 71.8221 85.9153 71.903C85.9115 71.9038 85.9081 71.9046 85.9043 71.9053L85.57 71.9835L85.1611 72.004C85.1437 72.0052 85.1263 72.0063 85.1089 72.0075L84.4466 72.0617C84.4424 72.062 84.4381 72.0624 84.4339 72.0624C84.4089 72.0601 84.3843 72.0566 84.3589 72.0535C84.2521 72.0411 84.1089 72.0245 83.9427 72.0187L83.316 71.9804C83.0622 71.9197 82.8058 71.8628 82.5511 71.8101C82.5443 71.8086 82.5371 71.8074 82.5304 71.8059L82.1719 71.7362C82.1503 71.7277 82.1282 71.7188 82.1062 71.7099C82.0244 71.6778 81.9418 71.6457 81.8579 71.6167L80.9904 71.3114C79.795 70.7345 78.6225 69.9366 77.5927 69.0003C76.5058 67.9238 75.4511 66.5634 74.5391 65.0621L73.9285 63.8785C73.8844 63.7915 73.8382 63.7056 73.792 63.6201C73.7391 63.5214 73.6886 63.4277 73.6505 63.3469L73.4043 62.7452C73.4026 62.7406 73.4009 62.7363 73.3988 62.7317C73.231 62.3324 73.0674 61.9435 72.9089 61.5666L72.5449 60.4294C72.4949 60.2627 72.4428 60.1106 72.3924 59.9632C72.3233 59.7624 72.2585 59.5728 72.2271 59.4207C72.225 59.4099 72.2224 59.3983 72.2199 59.3871L71.972 58.3246C71.9712 58.3211 71.9703 58.3176 71.9695 58.3141L71.7546 57.4238C71.7122 57.1448 71.6733 56.8867 71.6368 56.6465C71.5177 55.8892 71.4364 55.3742 71.4029 55.1607C71.4126 51.9728 71.8932 48.8917 72.7996 46.0694L72.6437 46.8994C72.6309 46.969 72.6165 47.0375 72.6021 47.1052C72.5725 47.2457 72.539 47.4047 72.5144 47.58C72.5123 47.5958 72.5102 47.6113 72.5085 47.6276L72.4432 48.2501C72.4004 48.6417 72.3542 49.0267 72.3055 49.3954C72.3 49.4395 72.2962 49.4837 72.2949 49.5278L72.2585 50.6386C72.2585 50.6479 72.258 50.6572 72.258 50.6665C72.2568 50.769 72.25 50.8793 72.2424 50.9962C72.2284 51.2221 72.2123 51.4775 72.2318 51.7603L72.2699 52.634L72.2902 53.3994C72.2911 53.4439 72.2945 53.4884 72.3004 53.5328C72.3305 53.7739 72.358 53.9948 72.3822 54.1891C72.4725 54.9447 72.5089 55.3708 72.5093 55.3746C72.5102 55.3797 72.511 55.3843 72.5114 55.3889C72.514 55.4145 72.5182 55.44 72.522 55.4656C72.5259 55.4899 72.5292 55.5139 72.5343 55.5375C72.5356 55.5449 72.536 55.5518 72.5377 55.5592C72.5386 55.5634 72.6348 55.9956 72.7682 56.7037L72.8805 57.3209C72.8894 57.3696 72.9009 57.4176 72.9149 57.4652L73.117 58.1504L73.3208 58.8976C73.3852 59.163 73.4797 59.3944 73.5564 59.5817C73.5933 59.6715 73.6281 59.7566 73.6518 59.827C73.6552 59.8371 73.659 59.8467 73.662 59.8564L73.981 60.7316C74.0001 60.7846 74.023 60.8369 74.0484 60.888C74.1972 61.1809 74.3289 61.4506 74.4506 61.7117L74.6527 62.1567C74.6624 62.178 74.6726 62.1993 74.6832 62.2201C74.7574 62.3641 74.8349 62.4871 74.8972 62.5858C74.9231 62.6268 74.9489 62.6674 74.9731 62.7092C74.979 62.7189 74.9845 62.729 74.9904 62.7386C75.1493 63.0002 75.3091 63.2753 75.4642 63.557C75.4883 63.6011 75.5155 63.6444 75.5443 63.6862C76.416 64.9375 77.3707 66.0155 78.3826 66.89C78.4047 66.9093 78.4271 66.9279 78.4504 66.9457C79.4717 67.7335 80.5938 68.3576 81.7858 68.8002C81.8774 68.8343 81.9718 68.8602 82.0685 68.8788C82.2901 68.9206 82.4732 68.9616 82.627 69.0038C82.6439 69.0084 82.6605 69.0127 82.6774 69.0169L82.7058 69.0254C82.8028 69.0556 82.9651 69.1059 83.1694 69.1345C83.2211 69.1419 83.2732 69.1469 83.3249 69.1496L83.63 69.1667C83.7775 69.1779 83.9199 69.1949 84.0529 69.2177C84.1508 69.234 84.2495 69.2425 84.3491 69.2425C84.4021 69.2425 84.4551 69.2402 84.508 69.2351L84.6246 69.2247C84.7589 69.2123 84.8865 69.2003 84.9793 69.1972C85.0047 69.1965 85.0305 69.1949 85.056 69.193L85.0729 69.1934C85.2369 69.1988 85.534 69.2073 85.8891 69.1063C85.998 69.0788 86.1031 69.0556 86.2035 69.037C86.295 69.0196 86.3844 69.0061 86.4683 68.996C86.6213 68.9782 86.7705 68.9407 86.912 68.8846L87.2231 68.7615C87.3845 68.702 87.4968 68.6675 87.5566 68.6505C87.7566 68.6095 87.9511 68.5333 88.1295 68.4195C88.1312 68.4183 88.2846 68.3232 88.5367 68.1993L88.8155 68.072C88.9418 68.0144 89.0592 67.942 89.1651 67.8565C89.2541 67.7849 89.3419 67.7176 89.4279 67.6557C89.5084 67.5973 89.5885 67.5435 89.6648 67.4959C89.9406 67.3369 90.1237 67.1446 90.2368 67.0258C90.2483 67.0138 90.2597 67.0014 90.2716 66.9894C90.2928 66.9712 90.3135 66.9527 90.3339 66.9337C90.419 66.8528 90.5174 66.7708 90.647 66.6644C90.739 66.5889 90.8212 66.5042 90.892 66.4113C90.9911 66.2817 91.0894 66.1626 91.1835 66.0569C91.2449 65.9923 91.3077 65.9269 91.3704 65.8604C91.3962 65.8329 91.4212 65.8046 91.445 65.7756C91.5433 65.6553 91.6123 65.5439 91.6628 65.4626C91.6725 65.4471 91.6818 65.4316 91.6878 65.422C91.6975 65.4088 91.7064 65.3953 91.7157 65.3813C91.8077 65.2417 91.9014 65.1132 92.0022 64.9886C92.0518 64.9271 92.0959 64.8625 92.1348 64.7944C92.651 63.8928 93.0709 62.9603 93.3828 62.0232C93.3913 61.9973 93.3993 61.9714 93.4065 61.945C93.6451 61.0547 93.8049 60.0955 93.8799 59.0945C93.8845 59.0307 93.885 58.9665 93.8803 58.9026C93.8676 58.7092 93.8625 58.554 93.8646 58.4283C93.865 58.4159 93.865 58.4039 93.865 58.3919L93.8663 58.3636C93.8701 58.2928 93.8769 58.174 93.865 58.0317C93.8629 58.0034 93.86 57.9752 93.8557 57.9469L93.8189 57.6904C93.8049 57.5712 93.7964 57.4633 93.7947 57.3696C93.793 57.2686 93.7799 57.1669 93.7557 57.0682C93.7218 56.9308 93.69 56.8012 93.6739 56.7088C93.671 56.694 93.6684 56.6793 93.665 56.6646C93.4837 55.8084 93.2591 55.2229 93.1514 54.9417C93.151 54.9409 93.1506 54.9397 93.1502 54.9389C92.9764 54.222 92.2442 53.7155 91.4208 53.7813C90.9204 53.8211 90.4657 54.0707 90.1932 54.4561C89.7546 55.0755 89.9826 55.6699 90.0796 55.9237C90.1678 56.1527 90.3305 56.5776 90.4661 57.2106C90.489 57.334 90.5174 57.4578 90.5466 57.5797C90.5534 57.7244 90.5669 57.875 90.5869 58.0351C90.5877 58.0452 90.589 58.0549 90.5907 58.0645L90.6152 58.2356C90.6123 58.2882 90.6106 58.3412 90.6106 58.3965C90.608 58.5718 90.6127 58.7606 90.6258 58.9827C90.5623 59.7659 90.4381 60.5103 90.2563 61.1979C90.0182 61.904 89.6902 62.6361 89.3037 63.3248C89.1762 63.4881 89.0533 63.6587 88.9372 63.8344C88.9011 63.8866 88.866 63.942 88.8312 63.9981C88.8308 63.9989 88.8304 63.9996 88.83 64C88.7914 64.0406 88.7533 64.0809 88.7151 64.1207C88.7041 64.132 88.6939 64.1432 88.6833 64.1548C88.5681 64.2829 88.4515 64.421 88.3359 64.5672C88.2384 64.6481 88.132 64.7398 88.0235 64.8408C87.9261 64.9252 87.8494 65.0049 87.7905 65.0668C87.6629 65.1476 87.5349 65.2347 87.4082 65.326C87.3328 65.3806 87.2561 65.4378 87.179 65.4974L87.0633 65.55C87.0497 65.5562 87.0362 65.5624 87.0226 65.569C86.8133 65.6712 86.6425 65.7632 86.5162 65.8348C86.3785 65.8762 86.2005 65.9339 85.9823 66.0147C85.9696 66.0194 85.9573 66.024 85.945 66.0291L85.8119 66.0817C85.7247 66.0948 85.6374 66.1099 85.5496 66.1262C85.4056 66.1533 85.2568 66.185 85.106 66.2218C85.025 66.2206 84.9195 66.2206 84.7983 66.2303C84.6619 66.2365 84.5301 66.2473 84.4021 66.2589C84.2318 66.2357 84.0567 66.2171 83.8792 66.204C83.8673 66.2032 83.855 66.202 83.8427 66.2016L83.691 66.1931C83.647 66.18 83.594 66.1649 83.5338 66.1502C83.3376 66.0972 83.124 66.0476 82.8855 65.9997C82.0714 65.6835 81.2989 65.2482 80.5866 64.7035C79.8077 64.0248 79.0305 63.1445 78.3335 62.1528C78.1729 61.8638 78.0084 61.5802 77.8436 61.3089C77.8033 61.2397 77.761 61.172 77.7182 61.1042C77.6893 61.0582 77.6593 61.011 77.6402 60.9773L77.4542 60.5676C77.452 60.5633 77.4504 60.5591 77.4482 60.5552C77.3232 60.2867 77.1897 60.0116 77.041 59.7167L76.7554 58.932C76.7054 58.7869 76.6524 58.6573 76.6054 58.5424C76.5596 58.4306 76.5126 58.3149 76.4986 58.2553C76.4944 58.2375 76.4901 58.2197 76.485 58.2019L76.2715 57.4188C76.2689 57.4103 76.2668 57.4017 76.2643 57.3932L76.0786 56.7633L75.9774 56.2088C75.8685 55.6304 75.7837 55.2276 75.7464 55.0562C75.7307 54.8859 75.6905 54.4777 75.6172 53.8614C75.5943 53.6787 75.5693 53.4787 75.5422 53.2616L75.5231 52.5489C75.5231 52.5419 75.5227 52.535 75.5227 52.5276L75.4833 51.6241C75.4824 51.6098 75.4816 51.5955 75.4807 51.5812C75.4727 51.4756 75.4816 51.3324 75.4922 51.1668C75.5006 51.0321 75.51 50.8801 75.5125 50.7141L75.546 49.6829C75.5939 49.3153 75.6396 48.9334 75.6829 48.5392L75.7456 47.939C75.7574 47.8601 75.7765 47.7699 75.7981 47.6666C75.8172 47.5765 75.8363 47.4859 75.8524 47.3973L76.0914 46.1228C76.5427 44.3503 77.1669 42.6199 77.8974 41.1148C78.692 39.6077 79.6882 38.1544 80.7819 36.9058L81.6358 36.0801C81.7011 36.0174 81.7659 35.9524 81.8303 35.8874C81.8871 35.8301 81.9456 35.7709 81.9884 35.7322C82.1291 35.6243 82.2685 35.5171 82.4062 35.4119C82.4121 35.4072 82.4185 35.4022 82.4248 35.3976L83.2363 34.7568L84.0097 34.2929C84.1508 34.2128 84.275 34.1331 84.3852 34.0623C84.4631 34.0123 84.5686 33.9446 84.6136 33.9218C84.6326 33.9145 84.6517 33.9063 84.6703 33.8982L85.4454 33.5585C85.4513 33.5562 85.4573 33.5535 85.4632 33.5507L86.0412 33.2888L86.5196 33.153C86.5264 33.151 86.5328 33.1495 86.5391 33.1472L87.4468 32.8794C90.9521 32.9553 94.3011 34.679 97.0407 37.7903C96.3343 37.3156 95.5995 36.8965 94.841 36.5363C94.7871 36.5107 94.7316 36.4879 94.6748 36.4682L93.7133 36.1304C93.71 36.1288 93.7061 36.1277 93.7023 36.1265C93.6667 36.1141 93.632 36.0998 93.5977 36.0863C93.4803 36.0398 93.3201 35.9764 93.1281 35.9253C93.0908 35.9156 93.0531 35.9067 93.0154 35.8994C92.8629 35.8696 92.712 35.8398 92.5628 35.8112C92.2891 35.7547 92.0272 35.6955 91.7844 35.6351C91.6801 35.6092 91.5734 35.5929 91.4657 35.5864L90.6525 35.5372C90.6318 35.5361 90.6119 35.5349 90.5907 35.5345C90.5699 35.5337 90.5097 35.5268 90.4657 35.5214C90.2695 35.4985 89.9788 35.4645 89.6334 35.5043L89.041 35.5527C88.8482 35.5624 88.6668 35.5713 88.4994 35.5798C88.3943 35.5852 88.2905 35.5995 88.1888 35.6231L87.7091 35.7353C87.2137 35.8464 86.9328 35.8928 86.923 35.894C86.9103 35.8963 86.898 35.8998 86.8853 35.9021C86.8552 35.9075 86.8256 35.9137 86.7955 35.9207C86.7713 35.9265 86.7472 35.9327 86.7234 35.9396C86.6963 35.947 86.6692 35.9555 86.6425 35.9644C86.6167 35.9729 86.5917 35.9822 86.5667 35.9919C86.5531 35.9973 86.5387 36.0012 86.5251 36.007C86.5226 36.0081 86.2323 36.1288 85.7509 36.2991L85.3094 36.4496C85.2128 36.4825 85.1199 36.5235 85.0318 36.5723L84.6326 36.7936L84.4161 36.9077C84.2945 36.9704 84.1673 37.0354 84.0356 37.1024C83.7538 37.2339 83.5406 37.3976 83.3817 37.5195C83.3397 37.552 83.2821 37.5961 83.2601 37.6104C83.2457 37.6197 83.2308 37.629 83.2169 37.639L82.5778 38.0755C82.5058 38.1242 82.4384 38.1788 82.3761 38.238C82.1782 38.4268 81.9829 38.6056 81.796 38.7689L81.4748 39.0428C81.4506 39.0633 81.4273 39.0846 81.4044 39.1066C81.2824 39.2243 81.1854 39.3388 81.1074 39.4313C81.0803 39.463 81.054 39.4947 81.0264 39.5245C81.018 39.5342 81.0091 39.5435 81.0006 39.5532C80.815 39.7656 80.6179 39.9795 80.4154 40.1885C80.3747 40.2311 80.3366 40.2752 80.301 40.3212C79.4081 41.4878 78.6127 42.8068 78.0012 44.1351C77.9932 44.1529 77.9856 44.1707 77.9779 44.1889C77.4427 45.4909 77.0202 46.9129 76.7228 48.4153C76.7143 48.4579 76.7079 48.5009 76.7033 48.5442C76.6694 48.8851 76.6342 49.1772 76.5965 49.438C76.5948 49.4481 76.5939 49.4581 76.5927 49.4686C76.5872 49.5115 76.58 49.5537 76.5732 49.5951C76.5562 49.698 76.535 49.8261 76.524 49.9747C76.5223 49.994 76.5215 50.0137 76.5206 50.0335C76.5164 50.1704 76.5126 50.3055 76.5088 50.439L76.5075 50.4792C76.4973 50.7361 76.4808 50.9888 76.4596 51.2306C76.4541 51.2918 76.4528 51.3533 76.4558 51.4144L76.4638 51.5851C76.474 51.7886 76.4833 51.9813 76.4863 52.1523C76.4867 52.1724 76.4876 52.1925 76.4888 52.2127C76.4914 52.2595 76.4905 52.3218 76.4893 52.3937C76.4867 52.5543 76.4833 52.7721 76.5227 53.0202C76.5482 53.2067 76.5702 53.3939 76.5884 53.5762C76.6045 53.7375 76.6181 53.8997 76.6283 54.0579C76.6325 54.1229 76.641 54.1871 76.6545 54.2506L76.7482 54.6979C76.8401 55.1637 76.8723 55.4207 76.8723 55.423C76.8753 55.4478 76.8808 55.4721 76.8851 55.4965C76.8889 55.5166 76.8914 55.5371 76.8957 55.5573C76.9058 55.6029 76.9185 55.6478 76.9329 55.6919C76.9338 55.6938 76.9338 55.6962 76.9346 55.6985C76.9359 55.7012 77.0236 55.9639 77.1359 56.3942L77.233 56.7946C77.2512 56.8689 77.2758 56.9421 77.3063 57.0133C77.3664 57.1537 77.4203 57.2853 77.4703 57.4153C77.5254 57.5584 77.5741 57.6935 77.6182 57.8281C77.6932 58.0792 77.8042 58.277 77.8788 58.4105C77.8944 58.4383 77.911 58.4658 77.9228 58.4909C77.933 58.5145 77.944 58.5381 77.9559 58.5614C78.0279 58.7049 78.0995 58.867 78.175 59.0388C78.2123 59.1232 78.2576 59.204 78.3106 59.2807C78.4127 59.4273 78.5017 59.5654 78.5831 59.7016L78.7263 59.9574C78.7437 59.9884 78.7619 60.0185 78.7814 60.0479C78.8665 60.1772 78.9526 60.2774 79.0094 60.3435C79.0195 60.3552 79.0297 60.3668 79.0339 60.3718C79.0445 60.3861 79.0555 60.4 79.067 60.414C79.167 60.5374 79.2602 60.6655 79.353 60.8055C79.3984 60.8744 79.4501 60.9398 79.5073 61.0013C80.1988 61.7442 80.9247 62.3552 81.6646 62.8172C81.707 62.8439 81.7515 62.8686 81.7968 62.8915C82.5545 63.2734 83.3741 63.5284 84.2326 63.6491C84.3148 63.6603 84.3974 63.6661 84.4805 63.6661C84.5547 63.6661 84.6292 63.6615 84.7034 63.6522C84.7941 63.6409 84.8369 63.6398 84.8483 63.6398C84.9496 63.6495 85.1382 63.6618 85.3674 63.6274C85.4323 63.6177 85.4958 63.6046 85.559 63.5875L85.72 63.5442C85.7213 63.5438 85.7221 63.5438 85.723 63.5438C85.9497 63.5342 86.1717 63.4815 86.3747 63.3887L86.4022 63.3763C86.4501 63.3546 86.515 63.3248 86.5412 63.3144C86.5692 63.3051 86.5967 63.295 86.6239 63.2838C87.3104 63.0106 87.796 62.6775 88.0354 62.5065C88.5274 62.2391 88.8499 61.7423 88.8308 61.1828C88.8117 60.6221 88.4469 60.1153 87.8901 59.8785C87.4718 59.7005 86.8167 59.6003 86.0734 60.135C85.9306 60.2375 85.6941 60.4082 85.3539 60.5475C85.2954 60.5684 85.2399 60.5904 85.1865 60.6125C85.0941 60.6268 85 60.645 84.9034 60.667C84.9017 60.6674 84.9 60.6682 84.8979 60.6686C84.7822 60.667 84.6619 60.6709 84.5347 60.6806C84.1508 60.6094 83.7821 60.4894 83.4368 60.323C82.9884 60.0336 82.5172 59.6343 82.0655 59.1603C81.9477 58.9881 81.8244 58.8214 81.6968 58.6635C81.6494 58.6016 81.6053 58.5505 81.5722 58.5118L81.4714 58.3315C81.4659 58.3219 81.46 58.3122 81.4544 58.3021C81.3574 58.1388 81.2544 57.9763 81.1413 57.8088C81.0752 57.6594 81.0061 57.5066 80.9286 57.3507C80.8743 57.2326 80.8184 57.1324 80.7764 57.0574C80.7654 57.0376 80.754 57.0179 80.7434 56.9982C80.6824 56.8109 80.6158 56.6252 80.5404 56.429C80.4908 56.3005 80.4391 56.1721 80.3832 56.039L80.3107 55.7403C80.309 55.7329 80.3073 55.7256 80.3052 55.7182C80.2141 55.3677 80.1357 55.1065 80.0887 54.9583C80.0666 54.8066 80.0243 54.5377 79.9497 54.1616C79.9484 54.1558 79.9476 54.1496 79.9463 54.1434L79.8709 53.784C79.8594 53.6261 79.8459 53.4659 79.8302 53.3061C79.8077 53.0848 79.781 52.858 79.7497 52.6329C79.748 52.6193 79.7467 52.6123 79.7446 52.5988C79.7416 52.5729 79.7429 52.4939 79.7442 52.4367C79.7454 52.3372 79.7475 52.2157 79.7403 52.0772C79.7361 51.8722 79.7259 51.6679 79.7158 51.4516L79.7119 51.3757C79.7336 51.1173 79.7497 50.8499 79.7607 50.5798C79.7607 50.5748 79.7611 50.5694 79.7611 50.5643L79.773 50.1581C79.7768 50.1275 79.7844 50.0818 79.7916 50.0373C79.8039 49.9638 79.8158 49.8895 79.8255 49.8129C79.8658 49.534 79.9026 49.2287 79.9382 48.8812C80.198 47.5881 80.5603 46.37 81.0146 45.2596C81.5248 44.156 82.182 43.0622 82.9185 42.0895C83.13 41.8693 83.3364 41.6445 83.5321 41.4209C83.5834 41.3651 83.6334 41.3059 83.6838 41.2471C83.7054 41.2212 83.7334 41.1883 83.7512 41.1678L84.0267 40.9329C84.0309 40.9291 84.0351 40.9256 84.0389 40.9221C84.2322 40.7534 84.4318 40.5723 84.6331 40.3827L85.1496 40.0298C85.2793 39.9455 85.3886 39.8611 85.4776 39.793C85.5068 39.7706 85.5437 39.742 85.5687 39.7238C85.5751 39.7207 85.5814 39.7176 85.5878 39.7145C85.734 39.6402 85.8747 39.5679 86.009 39.499L86.1628 39.4204C86.1789 39.4119 86.195 39.4034 86.2111 39.3945L86.5908 39.184L86.8972 39.0799C86.904 39.0776 86.9103 39.0753 86.9171 39.073C87.2612 38.9515 87.5269 38.8493 87.6926 38.7839C87.8629 38.7526 88.1333 38.6996 88.4939 38.6183C88.499 38.6172 88.5041 38.616 88.5092 38.6149L88.8393 38.5379C88.9677 38.5317 89.1033 38.5247 89.2448 38.5177C89.2647 38.517 89.2842 38.5158 89.3037 38.5139L89.9627 38.4601C89.9669 38.4597 89.9711 38.4593 89.9754 38.4589C90.0004 38.4612 90.0249 38.4647 90.0504 38.4678C90.1572 38.4802 90.3008 38.4972 90.4669 38.503L91.092 38.541C91.3361 38.5994 91.5929 38.6563 91.8569 38.7108C91.8641 38.7124 91.8713 38.7139 91.8785 38.7155C91.9971 38.7383 92.1166 38.7615 92.2374 38.7851C92.2599 38.794 92.2823 38.8033 92.3052 38.8122C92.3857 38.8439 92.4671 38.8756 92.5501 38.9043L93.4193 39.2096C94.6147 39.7869 95.7864 40.5843 96.8161 41.5211C97.9035 42.5971 98.9582 43.9576 99.8701 45.4592L100.483 46.6471C100.527 46.7334 100.573 46.8189 100.618 46.904C100.671 47.0015 100.721 47.0944 100.759 47.1749L101.005 47.7769C101.007 47.7816 101.009 47.7862 101.011 47.7905C101.179 48.189 101.342 48.5775 101.5 48.9539L101.864 50.0915C101.914 50.2594 101.967 50.4131 102.018 50.5612C102.086 50.7609 102.151 50.9493 102.182 51.0995C102.184 51.1115 102.187 51.1231 102.189 51.1347L102.655 53.0979L103.006 55.3584C102.997 58.5474 102.516 61.6293 101.61 64.4527L101.766 63.6204C101.779 63.5504 101.794 63.4819 101.808 63.4134C101.837 63.2741 101.871 63.1159 101.895 62.9414C101.897 62.9255 101.899 62.9097 101.901 62.8942L101.966 62.2701C102.008 61.8878 102.054 61.5028 102.104 61.1267C102.11 61.0822 102.113 61.0377 102.115 60.9928L102.151 59.8823C102.151 59.8734 102.151 59.8641 102.151 59.8549C102.152 59.7523 102.16 59.6417 102.167 59.5244C102.181 59.2988 102.197 59.0439 102.178 58.7618L102.148 58.0816L102.119 57.1212C102.118 57.0771 102.115 57.0326 102.109 56.9889L102.027 56.3327C101.937 55.5766 101.9 55.1506 101.9 55.1463C101.9 55.1417 101.899 55.1371 101.898 55.1324C101.895 55.1034 101.891 55.0748 101.886 55.0457C101.883 55.0241 101.88 55.002 101.875 54.9803C101.874 54.9742 101.873 54.968 101.872 54.9618C101.871 54.9575 101.774 54.5257 101.641 53.818L101.529 53.2009C101.52 53.1521 101.509 53.1037 101.495 53.0558L101.292 52.3705L101.089 51.6237C101.024 51.3587 100.93 51.1277 100.854 50.9408C100.817 50.8511 100.782 50.7659 100.758 50.6951C100.755 50.6851 100.751 50.675 100.747 50.6649L100.428 49.7886C100.409 49.7355 100.386 49.6833 100.36 49.6326C100.215 49.3455 100.083 49.0762 99.9591 48.8088L99.7566 48.3639C99.7472 48.3438 99.7379 48.324 99.7277 48.3043C99.6527 48.1584 99.5748 48.0342 99.512 47.9344C99.4866 47.8942 99.4608 47.8539 99.437 47.8125C99.4311 47.8025 99.4252 47.7924 99.4192 47.7823C99.262 47.5246 99.1027 47.2491 98.9455 46.964C98.9213 46.9199 98.8942 46.8769 98.8654 46.8351C97.9937 45.5834 97.0386 44.5051 96.0271 43.6314C96.005 43.612 95.9821 43.5935 95.9588 43.5753C94.9376 42.7875 93.8155 42.1634 92.6239 41.7211C92.5323 41.6871 92.437 41.6604 92.3399 41.6422C92.1213 41.6012 91.9382 41.5601 91.7793 41.5168C91.7645 41.5129 91.7501 41.5091 91.7357 41.5056L91.7064 41.4967C91.6081 41.4661 91.4424 41.415 91.2339 41.386C91.1873 41.3798 91.1407 41.3752 91.0937 41.3725L90.7805 41.3551C90.6335 41.3435 90.4907 41.3261 90.3546 41.3036C90.2042 41.2781 90.0508 41.2727 89.8982 41.2862L89.8084 41.2947C89.666 41.3079 89.5313 41.3206 89.4325 41.3241C89.4063 41.3249 89.3796 41.3261 89.3533 41.3284L89.3372 41.328C89.1732 41.3233 88.8757 41.3141 88.5206 41.4154C88.4096 41.4429 88.3049 41.4665 88.2083 41.4843C88.1138 41.5021 88.0248 41.5156 87.9443 41.5249C87.7917 41.5423 87.6426 41.5799 87.5015 41.6356L87.1879 41.7594C87.0095 41.8248 86.8904 41.8604 86.8357 41.8759C86.6425 41.9177 86.4539 41.9916 86.2806 42.1015C86.2794 42.1026 86.1255 42.1982 85.8734 42.3224L85.5954 42.4489C85.4687 42.5066 85.3513 42.5789 85.245 42.6644C85.153 42.7383 85.0674 42.8041 84.9839 42.8645C84.9021 42.9237 84.8212 42.9782 84.7428 43.0274C84.4682 43.186 84.2856 43.3779 84.1728 43.4963C84.161 43.5087 84.1491 43.5215 84.1373 43.5335C84.1173 43.5505 84.0978 43.5679 84.0788 43.5857C83.9868 43.6732 83.8724 43.7672 83.7622 43.8581C83.6707 43.9332 83.5889 44.0175 83.5186 44.1096C83.4186 44.24 83.3198 44.36 83.2253 44.466L83.0406 44.6602C83.0134 44.6885 82.988 44.7179 82.9634 44.7477C82.8664 44.8672 82.7973 44.9783 82.7473 45.0591C82.7372 45.0754 82.7274 45.0916 82.7198 45.1029C82.7113 45.1149 82.7033 45.1272 82.6948 45.1396C82.6041 45.2777 82.5071 45.4105 82.407 45.5347C82.3579 45.5954 82.3142 45.6596 82.2761 45.7266C81.7595 46.6274 81.3396 47.5602 81.0273 48.4985C81.0188 48.5245 81.0108 48.5504 81.004 48.5767C80.7646 49.4686 80.6052 50.4278 80.5302 51.4276C80.5256 51.4914 80.5256 51.5553 80.5298 51.6191C80.5425 51.8126 80.5476 51.9673 80.5451 52.0927V52.1306L80.5438 52.1585C80.54 52.2289 80.5336 52.3465 80.5446 52.4885C80.5468 52.5172 80.5501 52.5458 80.554 52.5744L80.5912 52.8325C80.6052 52.949 80.6133 53.0565 80.615 53.1521C80.6171 53.2535 80.6323 53.3638 80.6565 53.4624C80.6891 53.5963 80.7205 53.7224 80.7357 53.8111C80.7387 53.8265 80.7417 53.842 80.7446 53.8571C80.9269 54.713 81.151 55.298 81.2587 55.5797C81.2591 55.5805 81.2595 55.5816 81.2599 55.5824C81.4231 56.2568 82.082 56.7459 82.8469 56.7459C82.8906 56.7459 82.9346 56.744 82.9791 56.7409C83.4821 56.7041 83.9394 56.4549 84.2144 56.0692C84.6568 55.4485 84.4284 54.8523 84.3305 54.5977C84.2428 54.3682 84.0796 53.9438 83.944 53.3115C83.9216 53.1885 83.8936 53.0658 83.8635 52.942C83.8563 52.7954 83.8427 52.6425 83.8232 52.485C83.8224 52.4773 83.8211 52.4692 83.8203 52.4614L83.7953 52.2869C83.7974 52.2452 83.7999 52.1894 83.7995 52.1248C83.8025 51.9495 83.7978 51.7607 83.7847 51.539C83.8478 50.7574 83.972 50.013 84.1542 49.3239C84.3924 48.6169 84.7208 47.8845 85.1072 47.1969C85.2348 47.0332 85.3577 46.8622 85.4738 46.6869C85.5085 46.6355 85.5437 46.5809 85.5776 46.5264C85.5785 46.5248 85.5793 46.5237 85.5797 46.5225L85.6963 46.4002C85.7064 46.3894 85.7166 46.3786 85.7263 46.3673C85.8437 46.2373 85.9586 46.1011 86.0751 45.9545C86.1721 45.8732 86.2789 45.7819 86.3857 45.6821C86.484 45.5973 86.5612 45.5173 86.6205 45.4546C86.7472 45.3741 86.8756 45.2874 87.0031 45.1953C87.079 45.1404 87.1548 45.0839 87.2311 45.0247L87.3476 44.9717C87.3612 44.9655 87.3748 44.9589 87.3883 44.9527C87.5972 44.8506 87.7684 44.7581 87.8951 44.6865C88.032 44.6455 88.2096 44.5879 88.4274 44.507C88.4376 44.5035 88.4477 44.4996 88.4575 44.4958L88.5977 44.4404C88.6833 44.4273 88.771 44.4126 88.8592 44.3959C89.002 44.3692 89.1516 44.3371 89.305 44.3C89.3855 44.3015 89.4902 44.3015 89.6114 44.2915C89.7478 44.2853 89.88 44.2748 90.0088 44.2632C90.1796 44.2864 90.3538 44.305 90.5292 44.3182C90.5407 44.3189 90.5525 44.3197 90.5644 44.3205L90.7195 44.329C90.7636 44.3422 90.817 44.3576 90.8771 44.3723C91.0759 44.4257 91.289 44.4749 91.5251 44.5225C92.3387 44.8382 93.1112 45.2739 93.8235 45.8187C94.6024 46.4973 95.38 47.3772 96.0766 48.3693C96.2389 48.6614 96.4038 48.9447 96.5665 49.2128C96.6068 49.2813 96.6487 49.349 96.6911 49.4163C96.7203 49.4628 96.7504 49.5107 96.7695 49.5436L96.9568 49.9557C96.9585 49.9592 96.9602 49.9627 96.9614 49.9658C97.0894 50.2401 97.2229 50.5156 97.3691 50.8054L97.6547 51.5893C97.7047 51.7356 97.7581 51.8656 97.8056 51.9813C97.8509 52.0923 97.898 52.2076 97.9115 52.2664C97.9158 52.2842 97.92 52.3016 97.9246 52.3191L98.1386 53.103C98.1412 53.1119 98.1437 53.1208 98.1463 53.1297L98.3319 53.7592L98.4327 54.3133C98.5416 54.8917 98.6268 55.2941 98.6637 55.4656C98.6794 55.6362 98.7196 56.0448 98.7934 56.6619L98.8679 57.2601L98.8866 57.9721C98.887 57.9794 98.887 57.9868 98.8874 57.9945L98.9273 58.8988C98.9277 58.9127 98.9285 58.9262 98.9294 58.9398C98.9374 59.0462 98.9281 59.1897 98.9179 59.3557C98.9095 59.4904 98.9001 59.6424 98.8976 59.8077L98.8641 60.8388C98.815 61.2141 98.7692 61.5964 98.7277 61.9814L98.6645 62.5831C98.6527 62.6612 98.634 62.7506 98.6124 62.8524C98.5929 62.9441 98.5738 63.0362 98.5577 63.1244L98.3187 64.3985C97.8679 66.1715 97.2432 67.9018 96.5123 69.4073C95.719 70.9129 94.7227 72.3666 93.6282 73.6159L92.7747 74.4416C92.709 74.5043 92.6446 74.5693 92.5802 74.6343C92.5234 74.6916 92.465 74.7508 92.4222 74.7895L92.0035 75.111C91.9975 75.1153 91.992 75.1195 91.9865 75.1238L91.1738 75.7649L90.4008 76.2296C90.2597 76.3093 90.1356 76.3891 90.0249 76.4599C89.9474 76.5098 89.8419 76.5775 89.797 76.6003C89.7779 76.6077 89.7593 76.6154 89.7406 76.6235C89.4677 76.7431 89.2088 76.8568 88.966 76.9629C88.9592 76.9656 88.9528 76.9687 88.9461 76.9718L88.3693 77.2329L87.8888 77.3695C87.8829 77.3711 87.8773 77.3726 87.8714 77.3746L86.9633 77.6427C83.4567 77.5669 80.1077 75.8435 77.3681 72.7318V72.7318Z" fill="black"/>
<path d="M100.883 37.557C97.28 32.6217 92.422 29.9036 87.2047 29.9036V32.951L87.4471 32.8794C90.9524 32.9553 94.3018 34.679 97.0414 37.7903C96.335 37.3155 95.6002 36.8965 94.8417 36.5363C94.7874 36.5107 94.7319 36.4879 94.6756 36.4682L93.7141 36.1304C93.7102 36.1288 93.7069 36.1277 93.703 36.1265C93.6674 36.1141 93.6327 36.0998 93.598 36.0863C93.481 36.0398 93.3204 35.9764 93.1284 35.9253C93.0911 35.9156 93.0538 35.9067 93.0161 35.8994C92.8632 35.8696 92.7123 35.8398 92.5631 35.8112C92.2898 35.7547 92.0279 35.6955 91.7847 35.6351C91.6809 35.6092 91.5741 35.5929 91.4664 35.5864L90.6533 35.5372C90.6321 35.5361 90.6122 35.5349 90.5914 35.5345C90.5706 35.5337 90.51 35.5268 90.466 35.5214C90.2698 35.4985 89.9791 35.4645 89.6341 35.5043L89.0413 35.5527C88.8485 35.5624 88.6675 35.5713 88.4997 35.5798C88.395 35.5852 88.2912 35.5995 88.1895 35.6231L87.7094 35.7353C87.5022 35.7818 87.3327 35.8166 87.2047 35.8421V38.9701C87.4111 38.8942 87.5768 38.8304 87.6925 38.7847C87.8628 38.7534 88.1332 38.7004 88.4938 38.6191C88.4989 38.6179 88.504 38.6172 88.509 38.6156L88.8391 38.539C88.9675 38.5324 89.1031 38.5259 89.2447 38.5189C89.2646 38.5177 89.2841 38.5166 89.3036 38.515L89.9625 38.4609C89.9668 38.4605 89.971 38.4601 89.9752 38.4597C90.0002 38.462 90.0248 38.4655 90.0502 38.4686C90.157 38.4814 90.3007 38.498 90.4668 38.5038L91.0918 38.5417C91.3359 38.6002 91.5927 38.6574 91.8567 38.712C91.8639 38.7135 91.8711 38.7147 91.8783 38.7162C91.997 38.7391 92.1165 38.7623 92.2373 38.7863C92.2597 38.7948 92.2822 38.8041 92.3051 38.813C92.3856 38.8447 92.4669 38.8764 92.55 38.905L93.4191 39.2107C94.6145 39.7876 95.7862 40.5855 96.816 41.5218C97.9033 42.5979 98.9581 43.9583 99.87 45.46L100.483 46.6479C100.527 46.7345 100.573 46.8197 100.618 46.9048C100.671 47.0023 100.721 47.0951 100.759 47.1756L101.005 47.7777C101.007 47.7823 101.009 47.787 101.011 47.7916C101.179 48.1902 101.342 48.5782 101.5 48.9551L101.864 50.0927C101.914 50.2606 101.967 50.4138 102.018 50.5624C102.086 50.7617 102.151 50.9501 102.182 51.1006C102.184 51.1122 102.187 51.1238 102.189 51.1354L102.655 53.0991L103.006 55.3591C102.996 58.5482 102.516 61.6305 101.61 64.4535L101.766 63.6216C101.779 63.5512 101.793 63.4827 101.808 63.4146C101.837 63.2749 101.871 63.1167 101.895 62.9422C101.897 62.9263 101.899 62.9108 101.901 62.8949L101.966 62.2708C102.007 61.8886 102.054 61.5039 102.104 61.1278C102.11 61.0834 102.113 61.0385 102.115 60.9936L102.151 59.8835C102.151 59.8742 102.151 59.8649 102.151 59.8556C102.152 59.7531 102.16 59.6424 102.167 59.5256C102.181 59.2996 102.197 59.0446 102.178 58.7626L102.148 58.0827L102.119 57.122C102.118 57.0779 102.115 57.0338 102.109 56.9897L102.027 56.3334C101.937 55.5774 101.9 55.1514 101.9 55.1471C101.899 55.1425 101.899 55.1378 101.898 55.1332C101.895 55.1045 101.89 55.0759 101.886 55.0469C101.882 55.0248 101.879 55.0028 101.875 54.9811C101.874 54.9749 101.873 54.9687 101.872 54.9625C101.871 54.9583 101.774 54.5265 101.641 53.8188L101.529 53.202C101.52 53.1529 101.509 53.1045 101.495 53.0565L101.292 52.3713L101.089 51.6249C101.024 51.3599 100.93 51.1289 100.854 50.9416C100.817 50.8518 100.782 50.7667 100.758 50.6959C100.754 50.6858 100.751 50.6758 100.747 50.6657L100.428 49.7897C100.409 49.7363 100.386 49.6841 100.36 49.6334C100.215 49.3463 100.083 49.077 99.959 48.81L99.7564 48.365C99.7471 48.3449 99.7378 48.3248 99.7276 48.3051C99.6526 48.1592 99.5746 48.035 99.5119 47.9352C99.4865 47.8949 99.4606 47.8547 99.4369 47.8133C99.431 47.8032 99.425 47.7932 99.4191 47.7831C99.2619 47.5254 99.1026 47.2503 98.9454 46.9648C98.9208 46.9206 98.8941 46.8777 98.8653 46.8359C97.9936 45.5842 97.0384 44.5062 96.0269 43.6321C96.0049 43.6128 95.982 43.5942 95.9587 43.576C94.9375 42.7883 93.8153 42.1645 92.6237 41.7219C92.5322 41.6878 92.4369 41.6615 92.3398 41.6429C92.1212 41.6019 91.9381 41.5609 91.7788 41.5176C91.7643 41.5137 91.7499 41.5102 91.7355 41.5064L91.7063 41.4979C91.608 41.4669 91.4423 41.4158 91.2338 41.3872C91.1872 41.3806 91.1406 41.376 91.0935 41.3733L90.7804 41.3558C90.6333 41.3446 90.4905 41.3268 90.3545 41.3044C90.2041 41.2789 90.0507 41.2734 89.8981 41.2874L89.8083 41.2955C89.6659 41.309 89.5311 41.3214 89.4324 41.3249C89.4057 41.3257 89.3794 41.3272 89.3532 41.3292L89.3371 41.3288C89.1731 41.3245 88.8756 41.3152 88.5205 41.4162C88.4095 41.4441 88.3048 41.4673 88.2082 41.4851C88.1137 41.5029 88.0247 41.5164 87.9442 41.5257C87.7916 41.5435 87.6425 41.5807 87.5013 41.6364L87.206 41.7532V45.0444C87.2145 45.0379 87.2225 45.032 87.231 45.0255L87.3475 44.9725C87.3611 44.9663 87.3746 44.9601 87.3882 44.9535C87.5971 44.8514 87.7683 44.7589 87.895 44.6873C88.0319 44.6463 88.2094 44.589 88.4273 44.5078C88.4374 44.5043 88.4476 44.5004 88.4573 44.4965L88.5976 44.4412C88.6832 44.4281 88.7709 44.4134 88.8591 44.3967C89.0019 44.3704 89.1515 44.3379 89.3049 44.3008C89.3854 44.3023 89.49 44.3023 89.6112 44.2922C89.7477 44.2861 89.8799 44.2756 90.0087 44.264C90.1795 44.2872 90.3537 44.3058 90.5291 44.3189C90.5405 44.3197 90.5524 44.3205 90.5643 44.3213L90.7194 44.3298C90.7634 44.3429 90.8168 44.3584 90.877 44.3731C91.0757 44.4265 91.2889 44.4756 91.5249 44.5232C92.3385 44.839 93.1111 45.2747 93.8234 45.8194C94.6023 46.4981 95.3799 47.378 96.0765 48.3701C96.2388 48.6622 96.4037 48.9454 96.5664 49.2136C96.6062 49.2821 96.6486 49.3498 96.691 49.4171C96.7202 49.4635 96.7503 49.5115 96.7689 49.5444L96.9567 49.9565C96.9584 49.96 96.96 49.9634 96.9613 49.9665C97.0893 50.2409 97.2228 50.5164 97.369 50.8062L97.6546 51.5901C97.7046 51.7363 97.758 51.8664 97.8054 51.982C97.8508 52.0931 97.8978 52.2084 97.9114 52.2672C97.9156 52.285 97.9199 52.3024 97.9245 52.3198L98.1385 53.1037C98.1411 53.1126 98.1436 53.1215 98.1461 53.1304L98.3318 53.76L98.4326 54.3141C98.5415 54.8925 98.6267 55.2949 98.6636 55.4663C98.6792 55.637 98.7195 56.0456 98.7932 56.6627L98.8678 57.2609L98.8865 57.9728C98.8869 57.9802 98.8869 57.9875 98.8873 57.9953L98.9271 58.8995C98.9276 58.9135 98.9284 58.927 98.9293 58.9405C98.9373 59.047 98.928 59.1905 98.9178 59.3565C98.9093 59.4911 98.9 59.6432 98.8975 59.8084L98.864 60.8396C98.8148 61.2149 98.7691 61.5972 98.7275 61.9822L98.6644 62.5839C98.6525 62.662 98.6339 62.7514 98.6123 62.8532C98.5928 62.9449 98.5737 63.037 98.5576 63.1252L98.3186 64.3997C97.8673 66.1722 97.2431 67.9026 96.5121 69.4081C95.7189 70.9136 94.7226 72.3673 93.628 73.6167L92.7746 74.4424C92.7089 74.5051 92.6445 74.5701 92.5801 74.6351C92.5233 74.6924 92.4648 74.7516 92.422 74.7903L92.0033 75.1118C91.9974 75.1161 91.9919 75.1203 91.9864 75.1246L91.1736 75.7661L90.4007 76.2304C90.2596 76.3101 90.1354 76.3898 90.0248 76.4606C89.9473 76.5105 89.8418 76.5786 89.7968 76.6011C89.7778 76.6084 89.7591 76.6162 89.7405 76.6243C89.4676 76.7439 89.2087 76.8576 88.9659 76.9636C88.9591 76.9663 88.9527 76.9694 88.9459 76.9725L88.3692 77.2337L87.8887 77.3703C87.8827 77.3718 87.8772 77.3734 87.8713 77.3753L87.2056 77.5719V80.6189H87.2047H87.2051H87.2056H87.206C92.4229 80.6186 97.28 77.9008 100.883 72.9651C104.352 68.2152 106.262 61.9276 106.262 55.2613C106.262 48.5945 104.352 42.3073 100.883 37.557V37.557Z" fill="black"/>
<path d="M87.5131 74.623C87.5424 74.618 87.5712 74.6118 87.6 74.6049C87.6271 74.5987 87.6538 74.5921 87.6805 74.5847C87.7064 74.5778 87.7322 74.5696 87.7581 74.5611C87.7873 74.5515 87.8157 74.5414 87.8441 74.5302C87.8572 74.5251 87.8708 74.5213 87.8839 74.5159C87.8865 74.5147 88.1767 74.3936 88.6581 74.223L89.1018 74.0721C89.1963 74.0396 89.2874 73.9997 89.3739 73.9517C89.5251 73.8678 89.6883 73.7776 89.8625 73.6809L90.3744 73.4193C90.6562 73.2877 90.8697 73.1237 91.0282 73.0018C91.0706 72.9693 91.1286 72.9248 91.1507 72.9109C91.1638 72.902 91.1774 72.8935 91.1905 72.8842L91.8317 72.4466C91.9037 72.3978 91.9711 72.3433 92.0329 72.2841C92.2287 72.0976 92.4237 71.9188 92.6135 71.7528L92.9343 71.4789C92.958 71.4587 92.9813 71.4379 93.0034 71.4162C93.1262 71.2986 93.2237 71.1833 93.3017 71.0908C93.3284 71.0594 93.3551 71.0273 93.3822 70.9975C93.3911 70.9882 93.3996 70.979 93.4076 70.9693C93.5958 70.7549 93.7928 70.541 93.9933 70.3336C94.0339 70.2914 94.0725 70.2469 94.1077 70.2008C95.0001 69.035 95.7951 67.7164 96.407 66.3873C96.4155 66.3695 96.4235 66.3517 96.4307 66.3335C96.9663 65.0311 97.3884 63.6091 97.6859 62.1071C97.6944 62.0645 97.7007 62.022 97.705 61.979C97.7401 61.6316 97.7753 61.339 97.8122 61.0856C97.8139 61.0752 97.8151 61.0647 97.8164 61.0539C97.8215 61.0105 97.8287 60.9691 97.8359 60.9273C97.8528 60.8244 97.874 60.6964 97.8851 60.5482C97.8867 60.5277 97.8876 60.5068 97.888 60.4862L97.9012 60.0436C97.9113 59.7867 97.9279 59.534 97.9495 59.293C97.955 59.2311 97.9562 59.1688 97.9533 59.1069L97.9456 58.9536C97.9355 58.7435 97.9253 58.5454 97.9223 58.3682C97.9219 58.3492 97.9211 58.3303 97.9198 58.3113C97.9173 58.2645 97.9181 58.2022 97.9194 58.1302C97.9219 57.9693 97.9253 57.7503 97.8859 57.5019C97.86 57.3138 97.838 57.1269 97.8202 56.9451C97.8037 56.7845 97.7906 56.6239 97.7808 56.4672C97.777 56.4015 97.7681 56.3361 97.7545 56.2714L97.7317 56.1623C97.7062 56.0412 97.6825 55.9279 97.66 55.8226C97.5715 55.373 97.5388 55.1188 97.5367 55.101C97.5342 55.0824 97.5299 55.0646 97.527 55.046C97.5223 55.0174 97.5185 54.9892 97.5121 54.9605C97.5062 54.9362 97.4986 54.9122 97.4918 54.8878C97.4859 54.8665 97.4812 54.8456 97.4744 54.8243C97.4732 54.8216 97.3854 54.5581 97.2727 54.1279L97.1765 53.7297C97.1579 53.6535 97.1329 53.5792 97.1015 53.5068C97.0456 53.3768 96.9909 53.2422 96.9388 53.1072C96.8833 52.9628 96.8346 52.8278 96.7909 52.6947C96.7163 52.4436 96.6053 52.2459 96.5307 52.1127C96.515 52.0849 96.4985 52.0574 96.4866 52.0327C96.4761 52.0087 96.465 51.9847 96.4532 51.9611C96.3803 51.816 96.3061 51.6469 96.2341 51.4836C96.1968 51.3985 96.1506 51.3165 96.0968 51.2391C95.9993 51.0998 95.9086 50.9589 95.826 50.8208L95.6824 50.5639C95.6658 50.5345 95.6485 50.5058 95.6298 50.4776C95.5429 50.3449 95.4552 50.2431 95.3972 50.1754C95.387 50.1634 95.3768 50.1518 95.3722 50.1468C95.3628 50.1344 95.3531 50.122 95.3433 50.11C95.2429 49.9858 95.1484 49.8562 95.0548 49.715C95.0094 49.6469 94.9586 49.5822 94.9022 49.5215C94.2111 48.779 93.4852 48.168 92.7449 47.7053C92.7021 47.6786 92.658 47.6538 92.6127 47.631C91.8554 47.2491 91.0363 46.9945 90.1773 46.8734C90.0209 46.8513 89.8612 46.8501 89.704 46.8703C89.6116 46.8819 89.5701 46.8842 89.5603 46.8826C89.4586 46.873 89.2705 46.8606 89.0416 46.895C88.9772 46.9047 88.9132 46.9179 88.8505 46.9345L88.6891 46.9782C88.6874 46.9786 88.6861 46.9786 88.6853 46.979C88.4585 46.9887 88.2361 47.0413 88.0331 47.1341L88.0212 47.14C87.9691 47.1636 87.8988 47.1957 87.8704 47.2069C87.8416 47.2166 87.8132 47.227 87.7852 47.2378C87.5704 47.3234 87.3784 47.4147 87.2042 47.5048V50.786C87.5373 50.7852 87.9229 50.6842 88.3361 50.3871C88.4789 50.2845 88.7153 50.1143 89.0548 49.9746C89.1133 49.9537 89.1688 49.932 89.2226 49.91C89.3158 49.8953 89.4103 49.8771 89.5073 49.8546C89.509 49.8543 89.5103 49.8539 89.5116 49.8535C89.6273 49.8558 89.748 49.8512 89.8752 49.8419C90.2591 49.9131 90.6273 50.033 90.9723 50.199C91.4215 50.4888 91.8927 50.8889 92.3444 51.3629C92.4626 51.5355 92.5864 51.7022 92.7135 51.8605C92.7529 51.9112 92.7944 51.9607 92.8368 52.0098L92.9377 52.1894C92.9436 52.1998 92.9491 52.2103 92.9555 52.2203C93.0525 52.3844 93.1576 52.5496 93.2682 52.7136C93.3326 52.8591 93.4034 53.0151 93.4809 53.171C93.5347 53.2898 93.5911 53.3904 93.6335 53.4658C93.6445 53.4852 93.6559 53.5045 93.6661 53.5243C93.7267 53.7096 93.7928 53.8957 93.8691 54.093C93.9195 54.2238 93.9721 54.355 94.0263 54.4835L94.0988 54.7829C94.1009 54.7899 94.1026 54.7973 94.1043 54.8046C94.1954 55.1544 94.2742 55.4152 94.3204 55.5634C94.3424 55.7154 94.3852 55.9843 94.4594 56.3601C94.4607 56.3662 94.4619 56.3732 94.4632 56.3798L94.5386 56.7365C94.5496 56.8952 94.5632 57.0557 94.5793 57.2152C94.6009 57.4349 94.628 57.6613 94.6594 57.8888C94.6611 57.9023 94.6624 57.9097 94.6645 57.9236C94.6675 57.9496 94.6662 58.0289 94.6653 58.0865C94.6636 58.1856 94.6619 58.3067 94.6691 58.4448C94.6734 58.6545 94.6836 58.8646 94.6946 59.0867L94.6975 59.1459C94.6759 59.4044 94.6594 59.6718 94.6488 59.9422C94.6484 59.9473 94.6484 59.9523 94.6484 59.9573L94.6365 60.364C94.6327 60.3945 94.6251 60.4398 94.6179 60.4843C94.6056 60.5578 94.5937 60.6317 94.584 60.7076C94.5446 60.9811 94.5077 61.2868 94.4713 61.6401C94.2115 62.9336 93.8496 64.1512 93.3949 65.2621C92.8843 66.366 92.227 67.4598 91.491 68.4322C91.2808 68.6508 91.0753 68.8752 90.8774 69.1004C90.8265 69.1565 90.7761 69.2153 90.7265 69.2742C90.7045 69.3001 90.6765 69.333 90.6587 69.3535L90.3833 69.5883C90.3782 69.5926 90.3731 69.5968 90.368 69.6011C90.1739 69.7714 89.9756 69.9517 89.7773 70.1389L89.2599 70.4918C89.1306 70.5762 89.0213 70.6601 88.9323 70.7282C88.9031 70.7507 88.8658 70.7797 88.8404 70.7983C88.834 70.8014 88.8272 70.8044 88.8209 70.8079L88.2475 71.1008C88.2301 71.1097 88.2132 71.1186 88.1967 71.1279C88.0645 71.2014 87.9382 71.2711 87.8191 71.3372L87.511 71.4421C87.5042 71.4444 87.4979 71.4467 87.4915 71.4491C87.3881 71.4854 87.2928 71.5199 87.2042 71.5528V74.6807C87.3814 74.6459 87.4788 74.6296 87.4843 74.6288C87.4945 74.6273 87.5034 74.6246 87.5131 74.623V74.623Z" fill="black"/>
<path d="M87.5569 68.6504C87.7569 68.6094 87.9518 68.5331 88.1302 68.4194C88.1319 68.4182 88.2853 68.323 88.537 68.1992L88.8158 68.0719C88.9421 68.0143 89.0599 67.9419 89.1659 67.8564C89.2544 67.7848 89.3426 67.7175 89.4282 67.6556C89.5091 67.5972 89.5888 67.5434 89.6655 67.4958C89.9413 67.3368 90.1244 67.1444 90.2371 67.0257C90.249 67.0137 90.2604 67.0013 90.2723 66.9893C90.2935 66.9711 90.3143 66.9525 90.3342 66.9336C90.4193 66.8527 90.5177 66.7707 90.6473 66.6643C90.7393 66.5888 90.8215 66.5041 90.8923 66.4112C90.9918 66.2816 91.0897 66.1624 91.1842 66.0568C91.2457 65.9922 91.308 65.9268 91.3711 65.8602C91.397 65.8328 91.422 65.8045 91.4453 65.7755C91.5436 65.6552 91.6126 65.5437 91.6631 65.4625C91.6728 65.447 91.6821 65.4315 91.6885 65.4218C91.6978 65.4087 91.7071 65.3951 91.716 65.3812C91.808 65.2415 91.9016 65.1131 92.0025 64.9885C92.0521 64.927 92.0966 64.8624 92.1351 64.7943C92.6517 63.8927 93.0712 62.9602 93.3831 62.0231C93.392 61.9972 93.3996 61.9712 93.4068 61.9449C93.6458 61.0546 93.8052 60.0954 93.8802 59.0944C93.8848 59.0306 93.8853 58.9663 93.881 58.9025C93.8683 58.709 93.8632 58.5539 93.8653 58.4281C93.8658 58.4158 93.8658 58.4038 93.8653 58.3918L93.867 58.3635C93.8709 58.2927 93.8772 58.1739 93.8658 58.0315C93.8637 58.0033 93.8603 57.975 93.8564 57.9468L93.8196 57.6903C93.8052 57.5711 93.7971 57.4631 93.7954 57.3695C93.7937 57.2685 93.7802 57.1667 93.756 57.0681C93.7225 56.9307 93.6908 56.8011 93.6742 56.7086C93.6717 56.6939 93.6687 56.6792 93.6658 56.6645C93.484 55.8082 93.2594 55.2228 93.1517 54.9415C93.1513 54.9408 93.1509 54.9396 93.1505 54.9388C92.9767 54.2218 92.2449 53.7154 91.4215 53.7811C90.9211 53.821 90.4664 54.0706 90.1935 54.4559C89.7553 55.0754 89.9829 55.6697 90.0803 55.9235C90.1681 56.1526 90.3308 56.5775 90.4668 57.2105C90.4897 57.3339 90.5177 57.4577 90.5469 57.5796C90.5541 57.7243 90.5672 57.8748 90.5872 58.035C90.5884 58.0451 90.5897 58.0547 90.591 58.0644L90.6155 58.2354C90.613 58.2881 90.6109 58.3411 90.6113 58.3964C90.6083 58.5717 90.6134 58.7605 90.6266 58.9826C90.5626 59.7657 90.4384 60.5102 90.2566 61.1978C90.0185 61.9039 89.6905 62.636 89.304 63.3247C89.1769 63.488 89.054 63.6586 88.9379 63.8343C88.9019 63.8865 88.8667 63.9418 88.8319 63.998C88.8315 63.9987 88.8311 63.9995 88.8307 63.9999C88.7921 64.0405 88.7535 64.0808 88.7154 64.1206C88.7048 64.1318 88.6942 64.1431 88.6841 64.1547C88.5688 64.2827 88.4523 64.4209 88.3361 64.5671C88.2391 64.648 88.1323 64.7397 88.0243 64.8407C87.9268 64.925 87.8501 65.0047 87.7908 65.0666C87.6636 65.1475 87.5352 65.2346 87.409 65.3259C87.3416 65.3746 87.2734 65.4257 87.2047 65.4783V68.7695L87.2238 68.7618C87.3852 68.7018 87.4975 68.6674 87.5569 68.6504Z" fill="black"/>
<path d="M88.8306 61.1829C88.8115 60.6226 88.4467 60.1158 87.8899 59.8786C87.7038 59.7996 87.4708 59.7362 87.2042 59.7366V63.0173C87.5869 62.8188 87.8704 62.6242 88.0352 62.5066C88.5272 62.2392 88.8497 61.7424 88.8306 61.1829V61.1829Z" fill="black"/>
<path d="M85.3256 20C68.4491 20 54.7672 35.8883 54.7672 55.4872C54.7672 75.0862 68.4491 90.9745 85.3256 90.9745C102.202 90.9745 115.884 75.0862 115.884 55.4872C115.884 35.8883 102.202 20 85.3256 20ZM85.3256 85.9049C71.5398 85.9049 60.3232 72.2599 60.3232 55.4872C60.3232 38.7146 71.5398 25.0696 85.3256 25.0696C99.1114 25.0696 110.328 38.7146 110.328 55.4872C110.328 72.2599 99.1114 85.9049 85.3256 85.9049Z" fill="black"/>
<path d="M88.5263 90.9746C103.925 90.9746 116.409 75.0863 116.409 55.4873C116.409 35.8883 103.925 20 88.5263 20C73.1275 20 60.6434 35.8883 60.6434 55.4873C60.6434 75.0863 73.1275 90.9746 88.5263 90.9746ZM88.5263 25.0696C101.105 25.0696 111.34 38.7146 111.34 55.4873C111.34 72.26 101.105 85.905 88.5263 85.905C75.9476 85.905 65.713 72.26 65.713 55.4873C65.713 38.7146 75.9476 25.0696 88.5263 25.0696Z" fill="white"/>
<path d="M125.319 37.6027H115.18C114.481 37.6027 113.913 37.0346 113.913 36.3353V35.0679C113.913 34.3686 114.481 33.8005 115.18 33.8005H125.319C126.019 33.8005 126.587 34.3686 126.587 35.0679V36.3353C126.587 37.0346 126.019 37.6027 125.319 37.6027Z" fill="#BF3DC2"/>
<path d="M139.448 53.3747H120.437C119.738 53.3747 119.17 52.8066 119.17 52.1073V50.8399C119.17 50.1406 119.738 49.5725 120.437 49.5725H139.448C140.148 49.5725 140.716 50.1406 140.716 50.8399V52.1073C140.716 52.8066 140.148 53.3747 139.448 53.3747Z" fill="#BF3DC2"/>
<path d="M120.801 63.2324H108.127C107.427 63.2324 106.859 62.6643 106.859 61.965V60.6976C106.859 59.9983 107.427 59.4302 108.127 59.4302H120.801C121.5 59.4302 122.068 59.9983 122.068 60.6976V61.965C122.068 62.6643 121.5 63.2324 120.801 63.2324Z" fill="#BF3DC2"/>
<path d="M138.369 78.3471H125.695C124.995 78.3471 124.427 77.779 124.427 77.0797V75.8123C124.427 75.113 124.995 74.5449 125.695 74.5449H138.369C139.068 74.5449 139.636 75.113 139.636 75.8123V77.0797C139.636 77.779 139.068 78.3471 138.369 78.3471Z" fill="#BF3DC2"/>
<circle cx="141.842" cy="53.187" r="12.1577" fill="black"/>
</g>
<defs>
<filter id="filter0_i_2244_31778" x="58.9064" y="19.0693" width="64.6265" height="79.8354" filterUnits="userSpaceOnUse" color-interpolation-filters="sRGB">
<feFlood flood-opacity="0" result="BackgroundImageFix"/>
<feBlend mode="normal" in="SourceGraphic" in2="BackgroundImageFix" result="shape"/>
<feColorMatrix in="SourceAlpha" type="matrix" values="0 0 0 0 0 0 0 0 0 0 0 0 0 0 0 0 0 0 127 0" result="hardAlpha"/>
<feOffset dx="7" dy="7"/>
<feGaussianBlur stdDeviation="6"/>
<feComposite in2="hardAlpha" operator="arithmetic" k2="-1" k3="1"/>
<feColorMatrix type="matrix" values="0 0 0 0 0 0 0 0 0 0.63913 0 0 0 0 0.779427 0 0 0 0.25 0"/>
<feBlend mode="normal" in2="shape" result="effect1_innerShadow_2244_31778"/>
</filter>
<radialGradient id="paint0_radial_2244_31778" cx="0" cy="0" r="1" gradientUnits="userSpaceOnUse" gradientTransform="translate(87.7197 55.487) rotate(96.6787) scale(26.5078 19.7968)">
<stop stop-color="#F5FCFF"/>
<stop offset="1" stop-color="#B9E8FF"/>
</radialGradient>
<clipPath id="clip0_2244_31778">
<rect width="160" height="110" fill="white"/>
</clipPath>
</defs>
</svg>
