<svg width="641" height="405" viewBox="0 0 641 405" fill="none" xmlns="http://www.w3.org/2000/svg">
<g clip-path="url(#clip0_2244_33494)">
<path d="M101.363 265.737H543.328" stroke="#D6D6D6" stroke-width="0.810945" stroke-dasharray="3.24 3.24"/>
<path d="M14.5969 308.717H586.313" stroke="#D6D6D6" stroke-width="0.810945" stroke-dasharray="3.24 3.24"/>
<path d="M86.7663 222.757L531.164 222.757" stroke="#D6D6D6" stroke-width="0.810945" stroke-dasharray="3.24 3.24"/>
<path d="M137.045 178.966L1008 178.966" stroke="#D6D6D6" stroke-width="0.810945" stroke-dasharray="3.24 3.24"/>
<path d="M442.498 87.9965C425.659 87.9965 412 74.345 412 57.4983C412 40.6515 425.651 27 442.498 27C459.345 27 472.996 40.6515 472.996 57.4983C472.996 74.345 459.345 87.9965 442.498 87.9965Z" fill="#19D89F"/>
<path d="M400.336 200.816C340.529 200.816 291.877 249.475 291.877 309.282L231.433 309.282C231.433 216.147 307.2 140.379 400.336 140.379L400.336 200.816Z" fill="#FFD630"/>
<path d="M400.47 200.534C460.277 200.534 508.928 249.193 508.928 309L569.373 309C569.373 215.865 493.605 140.097 400.47 140.097L400.47 200.534Z" fill="#5959EB"/>
<path d="M641.453 164.979C581.646 164.979 532.995 116.32 532.995 56.5133L472.55 56.5133C472.55 149.648 548.318 225.416 641.453 225.416L641.453 164.979Z" fill="#424F9C"/>
<path d="M122.448 200.798C182.255 200.798 230.906 249.457 230.906 309.264L291.35 309.264C291.35 216.129 215.583 140.361 122.448 140.361L122.448 200.798Z" fill="#5959EB"/>
<path opacity="0.6" d="M261.135 309.069L230.917 309.069C230.917 273.3 242.096 240.096 261.135 212.762C280.174 240.096 291.354 273.308 291.354 309.077L261.135 309.077V309.069Z" fill="#DE9EE0"/>
<path d="M85.9602 308.717L26.7612 308.717" stroke="#FFD630" stroke-width="1.62189" stroke-dasharray="3.24 3.24"/>
<circle r="5.27114" transform="matrix(-1 0 0 1 5.27106 308.312)" fill="#FFD630"/>
<circle r="3.64925" transform="matrix(-1 0 0 1 18.2462 308.312)" fill="#FFD630"/>
<circle r="2.02736" transform="matrix(-1 0 0 1 28.7883 308.312)" fill="#FFD630"/>
<path d="M321.129 265.737L380.328 265.737" stroke="#BF3DC2" stroke-width="1.62189" stroke-dasharray="3.24 3.24"/>
<circle cx="405.873" cy="265.332" r="5.27114" fill="#BF3DC2"/>
<circle cx="392.898" cy="265.332" r="3.64925" fill="#BF3DC2"/>
<circle cx="382.355" cy="265.332" r="2.02736" fill="#BF3DC2"/>
<circle cx="89.605" cy="223.163" r="4.86567" transform="rotate(-180 89.605 223.163)" fill="#19D89F" stroke="#19D89F" stroke-width="0.810945"/>
<circle cx="102.58" cy="223.163" r="3.24378" transform="rotate(-180 102.58 223.163)" fill="#19D89F" stroke="#19D89F" stroke-width="0.810945"/>
<circle cx="113.122" cy="223.163" r="1.62189" transform="rotate(-180 113.122 223.163)" fill="#19D89F" stroke="#19D89F" stroke-width="0.810945"/>
<path d="M174.349 222.757L115.15 222.757" stroke="#19D89F" stroke-width="1.62189" stroke-dasharray="3.24 3.24"/>
<rect x="137" y="297" width="80" height="80" rx="15" fill="#5959EB"/>
<rect x="84.9998" y="103" width="39" height="39" rx="3" fill="#BF3DC2"/>
<path d="M149 351.479L167.651 332.828L178.569 347.385L203.59 321.455" stroke="white" stroke-width="5"/>
<path d="M192.217 321H204.5V332.373" stroke="white" stroke-width="5"/>
<path d="M101.127 128.405L90.9998 123.937V121.554L101.127 117.086V120.064L93.9785 122.745L101.127 125.426V128.405Z" fill="white"/>
<path d="M102.021 130.489L105.595 115H107.68L104.106 130.489H102.021Z" fill="white"/>
<path d="M108.872 128.405V125.426L116.021 122.745L108.872 120.064V117.086L119 121.554V123.937L108.872 128.405Z" fill="white"/>
<path d="M463.147 60.3448V53.951L459.876 53.6536C459.429 51.5719 458.537 49.4902 457.496 47.7059L459.578 45.1781L455.117 40.7173L452.59 42.799C450.805 41.6095 448.872 40.7173 446.642 40.4199L446.345 37H439.951L439.653 40.2712C437.572 40.7173 435.49 41.6095 433.706 42.6503L431.178 40.5686L426.717 45.0294L428.799 47.5572C427.609 49.3415 426.717 51.2745 426.42 53.5049L423 53.951V60.3448L426.271 60.6422C426.717 62.7239 427.609 64.8056 428.65 66.5899L426.568 69.1176L431.029 73.5784L433.557 71.4967C435.341 72.6863 437.274 73.5784 439.505 73.8758L439.802 77.1471H446.196L446.493 73.8758C448.575 73.4297 450.657 72.5376 452.441 71.4967L454.969 73.5784L459.429 69.1176L457.348 66.5899C458.537 64.8056 459.429 62.8725 459.727 60.6422L463.147 60.3448ZM443.073 65.6977C438.315 65.6977 434.449 61.8317 434.449 57.0735C434.449 52.3154 438.315 48.4493 443.073 48.4493C447.831 48.4493 451.697 52.3154 451.697 57.0735C451.697 61.8317 447.831 65.6977 443.073 65.6977Z" fill="white"/>
</g>
<defs>
<clipPath id="clip0_2244_33494">
<rect width="641" height="405" fill="white"/>
</clipPath>
</defs>
</svg>
